# Wavefront OBJ
# Created by fragMOTION 1.3.5
# http://www.fragmosoft.com

mtllib coin.mtl
# 32 vertices
v -20.4937 0.5 0
v -18.9845 8.08747 0
v -14.6865 14.5198 0
v -8.25414 18.8178 0
v -0.666667 20.327 0
v 6.92081 18.8178 0
v 13.3532 14.5198 0
v 17.6511 8.08747 0
v 19.1604 0.5 0
v 17.6511 -7.08748 0
v 13.3532 -13.5198 0
v 6.92081 -17.8178 0
v -0.666667 -19.327 0
v -8.25414 -17.8178 0
v -14.6865 -13.5198 0
v -18.9845 -7.08748 0
v -20.4937 0.5 -3
v -18.9845 8.08747 -3
v -14.6865 14.5198 -3
v -8.25414 18.8178 -3
v -0.666667 20.327 -3
v 6.92081 18.8178 -3
v 13.3532 14.5198 -3
v 17.6511 8.08747 -3
v 19.1604 0.5 -3
v 17.6511 -7.08748 -3
v 13.3532 -13.5198 -3
v 6.92081 -17.8178 -3
v -0.666667 -19.327 -3
v -8.25414 -17.8178 -3
v -14.6865 -13.5198 -3
v -18.9845 -7.08748 -3
# 34 texture vertices
vt 0.237496 -0.773381
vt 0.216458 -0.773381
vt 0.216458 -0.83813
vt 0.237496 -0.83813
vt 0.29741 -0.773381
vt 0.29741 -0.83813
vt 0.387076 -0.773381
vt 0.387076 -0.83813
vt 0.492844 -0.773381
vt 0.492844 -0.83813
vt 0.598613 -0.773381
vt 0.598613 -0.83813
vt 0.688279 -0.773381
vt 0.688279 -0.83813
vt 0.748192 -0.773381
vt 0.748192 -0.83813
vt 0.769231 -0.773381
vt 0.769231 -0.83813
vt 0.853553 -0.146447
vt 1 -0.5
vt 0.96194 -0.308658
vt 0.691342 -0.0380602
vt 0.5 0
vt 0.308658 -0.0380602
vt 0.146447 -0.146447
vt 0.0380602 -0.308658
vt 0 -0.5
vt 0.0380602 -0.691342
vt 0.146447 -0.853553
vt 0.308658 -0.96194
vt 0.5 -1
vt 0.691342 -0.96194
vt 0.853553 -0.853553
vt 0.96194 -0.691342
# 18 normals
vn -0.92388 0.382683 0
vn -1 7.59655e-009 0
vn -0.707107 0.707107 0
vn -0.382683 0.92388 0
vn 0 1 0
vn 0.382683 0.92388 0
vn 0.707107 0.707107 0
vn 0.92388 0.382683 0
vn 1 7.59655e-009 0
vn 0.92388 -0.382683 0
vn 0.707107 -0.707107 0
vn 0.382683 -0.92388 0
vn 0 -1 0
vn -0.382683 -0.92388 0
vn -0.707107 -0.707107 0
vn -0.92388 -0.382683 0
vn 0 0 1
vn 0 0 -1
usemtl CoinMat
g Cylinder
s 1
f 2/1/1 17/3/2 1/2/2
f 18/4/1 17/3/2 2/1/1
f 3/5/3 19/6/3 2/1/1
f 19/6/3 18/4/1 2/1/1
f 4/7/4 19/6/3 3/5/3
f 20/8/4 19/6/3 4/7/4
f 5/9/5 21/10/5 4/7/4
f 21/10/5 20/8/4 4/7/4
f 6/11/6 21/10/5 5/9/5
f 22/12/6 21/10/5 6/11/6
f 7/13/7 23/14/7 6/11/6
f 23/14/7 22/12/6 6/11/6
f 8/15/8 23/14/7 7/13/7
f 24/16/8 23/14/7 8/15/8
f 9/17/9 25/18/9 8/15/8
f 25/18/9 24/16/8 8/15/8
f 10/15/10 25/18/9 9/17/9
f 26/16/10 25/18/9 10/15/10
f 11/13/11 27/14/11 10/15/10
f 27/14/11 26/16/10 10/15/10
f 12/11/12 27/14/11 11/13/11
f 28/12/12 27/14/11 12/11/12
f 13/9/13 29/10/13 12/11/12
f 29/10/13 28/12/12 12/11/12
f 14/7/14 29/10/13 13/9/13
f 30/8/14 29/10/13 14/7/14
f 15/5/15 31/6/15 14/7/14
f 31/6/15 30/8/14 14/7/14
f 16/1/16 31/6/15 15/5/15
f 32/4/16 31/6/15 16/1/16
f 1/2/2 17/3/2 16/1/16
f 17/3/2 32/4/16 16/1/16
f 3/19/17 2/21/17 1/20/17
f 4/22/17 3/19/17 1/20/17
f 5/23/17 4/22/17 1/20/17
f 6/24/17 5/23/17 1/20/17
f 7/25/17 6/24/17 1/20/17
f 8/26/17 7/25/17 1/20/17
f 9/27/17 8/26/17 1/20/17
f 10/28/17 9/27/17 1/20/17
f 11/29/17 10/28/17 1/20/17
f 12/30/17 11/29/17 1/20/17
f 13/31/17 12/30/17 1/20/17
f 14/32/17 13/31/17 1/20/17
f 15/33/17 14/32/17 1/20/17
f 16/34/17 15/33/17 1/20/17
f 18/21/18 19/19/18 17/20/18
f 19/19/18 20/22/18 17/20/18
f 20/22/18 21/23/18 17/20/18
f 21/23/18 22/24/18 17/20/18
f 22/24/18 23/25/18 17/20/18
f 23/25/18 24/26/18 17/20/18
f 24/26/18 25/27/18 17/20/18
f 25/27/18 26/28/18 17/20/18
f 26/28/18 27/29/18 17/20/18
f 27/29/18 28/30/18 17/20/18
f 28/30/18 29/31/18 17/20/18
f 29/31/18 30/32/18 17/20/18
f 30/32/18 31/33/18 17/20/18
f 31/33/18 32/34/18 17/20/18
