# Wavefront OBJ
# Created by fragMOTION 1.3.5
# http://www.fragmosoft.com

mtllib visioncone.mtl
# 8 vertices
v -7.62384 7.62384 -5
v -31.4052 35.0718 100
v 38.7385 35.0718 100
v 7.62384 7.62384 -5
v -7.62384 -7.62384 -5
v -31.4052 -35.0718 100
v 38.7385 -35.0718 100
v 7.62384 -7.62384 -5
# 18 texture vertices
vt 0 0
vt 0.25 -0.25
vt 0 -0.25
vt 0.25 0
vt 0.5 -0.25
vt 0.5 0
vt 0.75 -0.25
vt 0.75 0
vt 1 -0.25
vt 1 0
vt 0.5 -0.5
vt 0.75 -0.5
vt 0.75 -0.75
vt 0.5 -0.75
vt 0.25 -0.75
vt 0.25 -0.5
vt 0 -0.5
vt 0 -0.75
# 9 normals
vn -0.579188 0.574551 -0.578301
vn -0.853469 -0.423318 -0.303961
vn -0.280028 -0.555571 -0.782895
vn -0.671147 0.665774 -0.326047
vn 0 0 1
vn 0.654847 0.660789 -0.366787
vn 0.680964 -0.343572 -0.64672
vn 0.416966 -0.8415 -0.343536
vn 0.332965 0.335986 -0.881049
g Box1
s 2
f 1/1/1 5/3/3 6/2/2
f 1/1/1 6/2/2 2/4/4
f 2/4/5 6/2/5 7/5/5
f 2/4/5 7/5/5 3/6/5
f 3/6/6 7/5/8 8/7/7
f 3/6/6 8/7/7 4/8/9
f 4/8/9 8/7/7 5/9/3
f 4/8/9 5/9/3 1/10/1
f 1/11/1 3/13/6 4/12/9
f 1/11/1 2/14/4 3/13/6
f 5/15/3 7/17/8 6/16/2
f 5/15/3 8/18/7 7/17/8
